# xmcd CD database file
#
# Track frame offsets:
#	150
#	33238
#	64845
#	98443
#	136938
#	183155
#	230138
#	270438
#	307318
#
# Disc length: 4781 seconds
#
# Revision: 0
# Processed by: cddbd v1.5.1PL2 Copyright (c) Steve Scherf et al.
# Submitted via: CDex 1.51
#
DISCID=7512ab09
DTITLE=Joachim Ringelnatz - Durch das Schlüsselloch
DYEAR=1900
DGENRE=Hörbuch
TTITLE0=Zwieback hat sich amüsiert
TTITLE1=Zwieback hat sich amüsiert2
TTITLE2=Vergebens
TTITLE3=Vergebens2
TTITLE4=Durch das Schlüsselloch eines Lebens
TTITLE5=Durch das Schlüsselloch eines Lebens2
TTITLE6=Toleranz
TTITLE7=Toleranz2
TTITLE8=Toleranz3
EXTD=
EXTT0=
EXTT1=
EXTT2=
EXTT3=
EXTT4=
EXTT5=
EXTT6=
EXTT7=
EXTT8=
PLAYORDER=
